<svg width="16" height="16" viewBox="0 0 16 16" fill="none" xmlns="http://www.w3.org/2000/svg">
<g clip-path="url(#clip0_39_435)">
<path d="M10.8281 8.00025L15.4132 3.41898C15.7918 3.04187 16.0001 2.53988 16.0001 2.00643C16.0001 1.47299 15.7918 0.971002 15.4132 0.593392C15.0366 0.216281 14.5331 0.00849509 13.9997 0.00849509C13.4658 0.00849509 12.9633 0.216281 12.5852 0.593392L7.99906 5.17467L3.41344 0.593392C3.03584 0.215781 2.53337 0.00799561 1.99844 0.00799561C1.46501 0.00799561 0.96254 0.215781 0.584941 0.593392C-0.194731 1.37259 -0.19523 2.63978 0.584941 3.41898L5.17107 8.00025L0.585441 12.5815C-0.194731 13.3617 -0.194731 14.6289 0.585441 15.4076C0.963039 15.7847 1.46551 15.9925 1.99944 15.9925C2.53337 15.9925 3.03584 15.7847 3.41344 15.4071L7.99906 10.8258L12.5847 15.4066C12.9628 15.7837 13.4648 15.992 13.9982 15.992C14.5326 15.992 15.0351 15.7842 15.4127 15.4066C16.1929 14.6264 16.1929 13.3592 15.4127 12.581L10.8281 8.00025ZM14.7054 14.7003C14.3278 15.0775 13.6695 15.078 13.2909 14.7003L8.35269 9.76643C8.1569 9.57013 7.84073 9.57013 7.64544 9.76643L2.70619 14.7008C2.32809 15.078 1.66979 15.078 1.29169 14.7008C0.902104 14.3112 0.902104 13.6774 1.29169 13.2878L6.23094 8.35339C6.32484 8.25949 6.37729 8.13362 6.37729 8.00025C6.37729 7.86789 6.32484 7.74052 6.23094 7.64712L1.29119 2.71271C0.901605 2.32311 0.901605 1.68926 1.29119 1.29966C1.48049 1.11086 1.73172 1.00697 1.99844 1.00697C2.26615 1.00697 2.51689 1.11086 2.70619 1.29966L7.64544 6.23408C7.84073 6.42937 8.1569 6.42937 8.35269 6.23408L13.2919 1.30016C13.67 0.922552 14.3278 0.922552 14.7064 1.29966C14.8947 1.48847 14.9991 1.73971 14.9991 2.00643C14.9991 2.27316 14.8947 2.5239 14.7064 2.71271L9.76719 7.64712C9.57139 7.84242 9.57139 8.15759 9.76719 8.35339L14.7064 13.2873C15.096 13.6769 15.096 14.3102 14.7054 14.7003Z" fill="#5A6271" fill-opacity="0.4"/>
</g>
<defs>
<clipPath id="clip0_39_435">
<rect width="16" height="16" fill="white"/>
</clipPath>
</defs>
</svg>
