<svg width="20" height="20" viewBox="0 0 20 20" fill="none" xmlns="http://www.w3.org/2000/svg">
<path d="M4.59031 10.4929C4.58943 10.4881 4.58862 10.4833 4.5879 10.4784L3.57113 4.37783C3.47068 3.7751 2.94919 3.33333 2.33814 3.33333H2.08335C1.85324 3.33333 1.66669 3.14679 1.66669 2.91667C1.66669 2.68655 1.85324 2.5 2.08335 2.5H2.33814C3.33132 2.5 4.18254 3.20024 4.3794 4.16667H17.9167C18.1935 4.16667 18.3934 4.43163 18.3173 4.6978L16.6507 10.5311C16.5995 10.71 16.4361 10.8333 16.25 10.8333H5.49188L5.59557 11.4555C5.69603 12.0582 6.21752 12.5 6.82857 12.5H16.25C16.4801 12.5 16.6667 12.6865 16.6667 12.9167C16.6667 13.1468 16.4801 13.3333 16.25 13.3333H6.82857C5.81015 13.3333 4.941 12.5971 4.77358 11.5925L4.59031 10.4929V10.4929ZM4.51966 5L5.35299 10H15.9357L17.3643 5H4.51966ZM6.66669 17.5C5.74621 17.5 5.00002 16.7538 5.00002 15.8333C5.00002 14.9129 5.74621 14.1667 6.66669 14.1667C7.58716 14.1667 8.33335 14.9129 8.33335 15.8333C8.33335 16.7538 7.58716 17.5 6.66669 17.5ZM6.66669 16.6667C7.12692 16.6667 7.50002 16.2936 7.50002 15.8333C7.50002 15.3731 7.12692 15 6.66669 15C6.20645 15 5.83335 15.3731 5.83335 15.8333C5.83335 16.2936 6.20645 16.6667 6.66669 16.6667ZM14.1667 17.5C13.2462 17.5 12.5 16.7538 12.5 15.8333C12.5 14.9129 13.2462 14.1667 14.1667 14.1667C15.0872 14.1667 15.8334 14.9129 15.8334 15.8333C15.8334 16.7538 15.0872 17.5 14.1667 17.5ZM14.1667 16.6667C14.6269 16.6667 15 16.2936 15 15.8333C15 15.3731 14.6269 15 14.1667 15C13.7065 15 13.3334 15.3731 13.3334 15.8333C13.3334 16.2936 13.7065 16.6667 14.1667 16.6667Z" fill="#5A6271"/>
</svg>
