<svg width="20" height="20" viewBox="0 0 20 20" fill="none" xmlns="http://www.w3.org/2000/svg">
<path d="M10 17.95C9.75281 17.9506 9.50793 17.9023 9.27946 17.8079C9.05099 17.7135 8.84344 17.5749 8.66876 17.4L2.23126 10.9625C1.72272 10.4484 1.32156 9.83828 1.05116 9.16764C0.780759 8.497 0.646517 7.77926 0.656256 7.05622C0.661156 6.39362 0.79673 5.7385 1.05521 5.12838C1.3137 4.51826 1.69001 3.96512 2.1626 3.50066C2.63519 3.0362 3.19476 2.66954 3.80928 2.42168C4.42379 2.17382 5.08117 2.04963 5.74376 2.05622C6.4182 2.04943 7.08714 2.17815 7.71091 2.43474C8.33468 2.69133 8.90056 3.07057 9.37501 3.54997L10 4.17497L10.5125 3.66247C11.3974 2.75408 12.5816 2.19717 13.8457 2.0949C15.1097 1.99262 16.368 2.35191 17.3875 3.10622C17.9678 3.55313 18.4463 4.11855 18.791 4.76482C19.1357 5.4111 19.3388 6.1234 19.3867 6.8543C19.4346 7.58519 19.3262 8.31791 19.0688 9.00364C18.8114 9.68938 18.4108 10.3124 17.8938 10.8312L11.3313 17.4C11.1566 17.5749 10.949 17.7135 10.7206 17.8079C10.4921 17.9023 10.2472 17.9506 10 17.95ZM5.71876 3.29997C4.72533 3.29896 3.77048 3.68449 3.05626 4.37497C2.69213 4.72531 2.40256 5.14563 2.20494 5.61068C2.00732 6.07573 1.90573 6.57593 1.90626 7.08122C1.90078 7.63705 2.00568 8.18843 2.21489 8.7034C2.4241 9.21837 2.73345 9.6867 3.12501 10.0812L9.56251 16.5187C9.62061 16.5773 9.68973 16.6238 9.76589 16.6555C9.84206 16.6873 9.92375 16.7036 10.0063 16.7036C10.0888 16.7036 10.1705 16.6873 10.2466 16.6555C10.3228 16.6238 10.3919 16.5773 10.45 16.5187L17.0188 9.94372C17.4043 9.55 17.7022 9.07915 17.8929 8.5621C18.0836 8.04505 18.1627 7.49352 18.125 6.94372C18.0916 6.3883 17.9386 5.84664 17.6765 5.35582C17.4144 4.865 17.0493 4.43661 16.6063 4.09997C15.8288 3.52678 14.8695 3.25576 13.9071 3.3374C12.9447 3.41904 12.0448 3.84777 11.375 4.54372L10.4438 5.49998C10.3857 5.55856 10.3165 5.60505 10.2404 5.63678C10.1642 5.66851 10.0825 5.68485 10 5.68485C9.9175 5.68485 9.83581 5.66851 9.75964 5.63678C9.68348 5.60505 9.61436 5.55856 9.55626 5.49998L8.49376 4.43747C7.76195 3.71202 6.7742 3.30346 5.74376 3.29997H5.71876Z" fill="#5A6271"/>
</svg>
