<svg width="16" height="16" viewBox="0 0 16 16" fill="none" xmlns="http://www.w3.org/2000/svg">
<g clip-path="url(#clip0_39_469)">
<path d="M14.4609 9.4067C14.4595 9.4067 14.4397 9.4067 14.4382 9.4067L1.52751 9.241C1.12938 9.23591 0.753224 9.10242 0.468731 8.86485C0.165886 8.61262 -0.00493576 8.25992 0.000188353 7.89697C0.0104627 7.16595 0.685748 6.59333 1.5385 6.59333L14.4727 6.75902C14.8708 6.76412 15.2469 6.89761 15.5314 7.13518C15.8335 7.38741 16.0051 7.74008 16 8.1023C15.9897 8.83405 15.3137 9.4067 14.4609 9.4067ZM1.5517 7.32652C1.1059 7.32652 0.737826 7.59269 0.733408 7.90724C0.73048 8.10008 0.860256 8.2372 0.93798 8.30172C1.09123 8.43003 1.30974 8.50483 1.5363 8.50776L14.4463 8.67346L14.4602 9.04007V8.67346C14.9001 8.67346 15.2616 8.41317 15.266 8.09273C15.2689 7.8999 15.1392 7.76278 15.0614 7.69825C14.9082 7.56994 14.6897 7.49514 14.4624 7.49222L1.5517 7.32652Z" fill="#5A6271" fill-opacity="0.4"/>
</g>
<defs>
<clipPath id="clip0_39_469">
<rect width="16" height="16" fill="white"/>
</clipPath>
</defs>
</svg>
