<svg width="16" height="16" viewBox="0 0 16 16" fill="none" xmlns="http://www.w3.org/2000/svg">
<g clip-path="url(#clip0_39_472)">
<path d="M6.66396 15.3968C6.2751 15.008 6.06079 14.4901 6.06079 13.9396V9.93945L2.06043 9.93921C1.50986 9.93945 0.992515 9.72514 0.60317 9.3358C0.214067 8.94669 2.05458e-07 8.42935 2.05458e-07 7.87878C-0.000242226 7.32846 0.214067 6.81087 0.60317 6.42153C0.992515 6.03243 1.50986 5.81812 2.06067 5.81836L6.06055 5.81812L6.06079 2.06043C6.06055 1.51011 6.27486 0.992515 6.66396 0.60317C7.05306 0.213825 7.5709 -0.000242226 8.12122 2.0569e-07C8.67178 2.0569e-07 9.18864 0.214067 9.57847 0.603412C9.96757 0.992273 10.1819 1.51011 10.1816 2.06067L10.1819 5.81836H13.9396C14.4901 5.81836 15.007 6.03242 15.3968 6.42177C15.7862 6.81063 16.0005 7.32871 16 7.87878C16.0002 8.42935 15.7859 8.94669 15.3968 9.33604C15.008 9.72538 14.4901 9.93945 13.9396 9.93921L10.1819 9.93969L10.1816 13.9396C10.1819 14.4901 9.96757 15.007 9.57847 15.3968C9.18937 15.7859 8.67178 16.0002 8.12122 16C7.57114 16.0005 7.05355 15.7862 6.66396 15.3968ZM6.88845 9.11179C6.97597 9.19955 7.03027 9.32053 7.03027 9.45459L7.03052 13.9396C7.03052 14.2315 7.14397 14.5052 7.3498 14.7112C7.55611 14.9175 7.82981 15.0305 8.12122 15.0305C8.41286 15.0305 8.68657 14.9168 8.89287 14.7112C9.09918 14.5049 9.2124 14.2315 9.21192 13.9398L9.2124 9.45483C9.2124 9.18719 9.42938 8.96997 9.69726 8.96997L13.9396 8.96973C14.2315 8.96973 14.5049 8.85627 14.7112 8.65044C14.9173 8.44413 15.0305 8.17067 15.0305 7.87878C15.0305 7.58738 14.9166 7.31343 14.7112 7.10737C14.5052 6.9013 14.2315 6.78784 13.9401 6.78833L9.69702 6.78784C9.42938 6.78784 9.21216 6.57087 9.21216 6.30322L9.21192 2.06043C9.21216 1.76902 9.09821 1.49508 8.89287 1.28901C8.68657 1.08294 8.41286 0.969484 8.12146 0.969727C7.82981 0.969727 7.55587 1.08294 7.34956 1.28901C7.14349 1.49508 7.03052 1.76878 7.03027 2.06043V6.30298C7.03027 6.57062 6.81306 6.78784 6.54541 6.78784L2.06043 6.78808C1.76902 6.78808 1.49508 6.9013 1.28877 7.10737C1.08318 7.31319 0.969727 7.58738 0.969484 7.87878C0.969484 8.17043 1.08318 8.44413 1.28877 8.65044C1.49508 8.85675 1.76878 8.96973 2.06043 8.96948L6.54541 8.96997C6.67947 8.96997 6.80069 9.02452 6.88845 9.11179Z" fill="#5A6271" fill-opacity="0.4"/>
</g>
<defs>
<clipPath id="clip0_39_472">
<rect width="16" height="16" fill="white"/>
</clipPath>
</defs>
</svg>
